# xmcd CD database file
#
# Track frame offsets:
#	150
#	19545
#	45292
#	63755
#	86067
#	108000
#	125055
#	144482
#	164010
#	181500
#
# Disc length: 2654 seconds
#
# Revision: 0
# Processed by: cddbd v1.5PL3 Copyright (c) Steve Scherf et al.
# Submitted via: CDex 1.40Release
#
DISCID=750a5c0a
DTITLE=VARIOUS ARTIST - THE BEST OF WORLD DJ Vol,1
DYEAR=1996
DGENRE=ヒップ ホップ (一般)
TTITLE0=A SAP STYLE/DJ ALADDIN feat. DJ YUTAKA
TTITLE1=WHEEL TO WHEEL/DJ FLESH
TTITLE2=NUMBER TWO/DJ MA$A
TTITLE3=STILL BUGGIN/DJ MELO-D
TTITLE4=スキル'S 40/DJ KOJI
TTITLE5=BRING IT ON/DJ YUTAKA feat DONALD D
TTITLE6=TURNTABLE TECHNICIAN/DJ TA-SHI
TTITLE7=REAL LIVE/DJ WAKA
TTITLE8=WORLDWIDE/DJ YUTAKA
TTITLE9=DJ BEAT#2/#3 /DJ BEAT
EXTD=YEAR: 1996
EXTT0=
EXTT1=
EXTT2=
EXTT3=
EXTT4=
EXTT5=
EXTT6=
EXTT7=
EXTT8=
EXTT9=
PLAYORDER=
